<svg width="37" height="24" viewBox="0 0 37 24" fill="none" xmlns="http://www.w3.org/2000/svg">
<g clip-path="url(#clip0_4802_222)">
<path d="M0.00146484 23.1914H36.9988V0.191406H0.00146484V23.1914Z" fill="black"/>
<path d="M0.429688 22.7789H36.6043V0.610107H0.429688V22.7789Z" fill="white"/>
<path d="M8.40912 12.89L9.10895 13.6756L9.83209 12.8952H10.4115V13.1363L9.50524 14.1175L10.4115 15.1665V12.8952H12.0472C12.3565 12.8952 12.8101 13.0352 12.8101 13.6632C12.8101 14.5442 12.2133 14.5547 11.8864 14.5547H11.037V15.4077H9.82626L9.08661 14.5718L8.32898 15.4015H5.92158V12.8895H8.40912V12.89V12.89ZM15.8197 12.89H17.8828V13.4316H16.4511V13.902H17.843V14.3786H16.4511V14.876H17.8828V15.402H15.8197V12.89V12.89ZM13.7402 15.4081H13.1088V12.8957H14.7498C15.0602 12.8957 15.5075 13.0305 15.5075 13.5683C15.5075 13.8721 15.4157 14.0957 15.0714 14.2642C15.3695 14.2979 15.4846 14.4887 15.4846 14.8922L15.5075 15.4081H14.8931L14.8761 14.9477C14.8708 14.7351 14.7843 14.5219 14.5668 14.5219H13.7402V15.4081V15.4081ZM21.8448 13.8692C22.6214 13.9072 22.6855 14.2865 22.6855 14.69C22.6855 15.1608 22.2897 15.4134 21.8764 15.4134H20.551V14.8756H21.584C21.7593 14.8756 22.0201 14.8756 22.0201 14.6335C22.0201 14.5186 21.974 14.446 21.7875 14.426C21.6426 14.4123 21.4973 14.4025 21.3519 14.3966C20.6511 14.3786 20.4884 14.0382 20.4884 13.6234C20.4884 13.1525 20.8269 12.8947 21.2402 12.8947H22.5655V13.4335H21.5957C21.3752 13.4363 21.1367 13.4079 21.1367 13.6523C21.1367 13.8061 21.2547 13.837 21.4033 13.8517C21.4548 13.8522 21.7992 13.8692 21.8448 13.8692V13.8692ZM19.4806 13.8692C20.2567 13.9072 20.3213 14.2865 20.3213 14.69C20.3213 15.1608 19.925 15.4134 19.5122 15.4134H18.1864V14.8756H19.2193C19.3942 14.8756 19.6559 14.8756 19.6559 14.6335C19.6559 14.5186 19.6098 14.446 19.4233 14.426C19.3398 14.4146 19.0329 14.3976 18.9877 14.3966C18.2869 14.3786 18.1242 14.0382 18.1242 13.6234C18.1242 13.1525 18.4627 12.8947 18.8755 12.8947H20.2013V13.4335H19.2315C19.0105 13.4363 18.7725 13.4079 18.7725 13.6523C18.7725 13.8061 18.8901 13.837 19.0397 13.8517C19.0906 13.8522 19.435 13.8692 19.4806 13.8692V13.8692ZM11.1633 11.0895H10.5319V8.57707H12.173C12.4828 8.57707 12.9311 8.71188 12.9311 9.24968C12.9311 9.553 12.8393 9.77752 12.4949 9.94556C12.7931 9.97926 12.9082 10.1701 12.9082 10.5736L12.9311 11.0895H12.3172L12.2997 10.6296C12.2939 10.4164 12.2084 10.2038 11.9899 10.2038H11.1638V11.0895H11.1633V11.0895ZM13.2526 11.0895H13.8834V8.57422H13.2526V11.0895ZM8.10752 8.57707H10.1701V9.1182H8.73985V9.58955H10.1308V10.0666H8.73985V10.5626H10.1701V11.0895H8.10752V8.57707V8.57707ZM3.50107 11.0895H4.77203V9.225L5.61513 11.0895H6.18918L7.05219 9.25586V11.0895H7.68306V8.57707H6.67629L5.90167 10.2626L5.12996 8.57707H4.14019V10.997L3.03824 8.57707H2.20388L1.0791 11.0895H1.74494L1.99116 10.5289H3.25047L3.50107 11.0895V11.0895ZM17.5152 10.5304H16.2564L16.0096 11.091H15.1772C14.4774 11.091 14.1671 10.5175 14.1821 9.82214C14.2035 8.7902 14.8276 8.57564 15.1146 8.57564H15.9382V9.12247H15.5483C15.1291 9.12247 14.8023 9.16519 14.8023 9.75379V9.93607C14.8052 10.3789 15.0427 10.4838 15.1947 10.5147C15.2321 10.5232 15.3011 10.5266 15.3263 10.5247L15.5993 10.5232L16.4686 8.57707H17.3039L18.3796 10.9353V8.57564H19.3116L20.3762 10.3153V8.57564H21.007V11.091H20.1465L19.0105 9.25111V11.091H17.7653L17.5152 10.5304V10.5304Z" fill="#00ACEC"/>
<path d="M22.5707 12.5036V1.32019H1.1333V9.96786L1.93706 8.19636H3.30273L3.7505 9.25014V8.19636H5.41388L5.91896 9.2397L6.41239 8.19636H12.2767C12.5059 8.19636 12.8158 8.27516 12.9542 8.52151V8.19636H14.1819V8.57753C14.3427 8.36487 14.5836 8.19636 15.0537 8.19636H17.5558L18.0147 9.21644V8.19636H19.4955L20.0229 9.08258V8.19636H21.3769V11.4707H19.92L19.3114 10.5066V11.4707H17.464L17.1658 10.8313H16.5801L16.3047 11.4707H15.1455C14.8929 11.4488 14.3082 11.3473 14.1819 10.9666V11.4707H11.9557V10.7534C11.9557 10.6519 11.8639 10.5289 11.7376 10.5289H11.4967V11.4707H6.75672V10.7307L6.40122 11.4707H5.43719L5.07003 10.7193V11.4707H3.17646L2.92392 10.8878H2.31539L2.05168 11.4707H1.1333V22.0479H22.5707V15.5652C22.4561 15.6891 22.2725 15.7898 21.9971 15.7898H20.206V15.5429C20.0686 15.6891 19.8738 15.7898 19.5635 15.7898H14.5146V15.1058C14.5029 15.0156 14.5491 14.8252 14.2965 14.8252H14.0901V15.7898H12.7473V14.6786C12.6094 14.904 12.3117 14.9145 12.1164 14.9259H11.4045V15.7898H9.61432L9.09758 15.1727L8.54685 15.7898H5.50615V12.5036H8.59298L9.13206 13.0979L9.68328 12.5036H12.1276C12.2995 12.514 12.6264 12.5928 12.7473 12.7722V12.5036H14.8361C15.0197 12.5036 15.3752 12.5814 15.5248 12.8169V12.5036H18.141V12.7946C18.2784 12.6156 18.497 12.5036 18.8292 12.5036H20.5047V12.7841C20.631 12.6042 20.9641 12.5036 21.1593 12.5036H22.5707V12.5036ZM28.4704 12.2178C28.4704 12.6379 26.8342 12.1746 26.8342 13.1961C26.8342 13.6627 27.2203 13.874 27.6545 13.874C27.9969 13.874 28.2596 13.8047 28.519 13.5688L28.6122 13.8089H29.4374C29.3903 13.7216 29.383 13.6077 29.383 13.4795V12.4286C29.383 11.8922 29.3169 11.4977 28.229 11.4977C27.3209 11.4977 26.9741 11.7764 26.9741 12.252H27.8517C27.8735 12.0593 28.045 12.0341 28.1722 12.0341C28.2694 12.0341 28.4704 12.0555 28.4704 12.2178V12.2178ZM33.2182 13.5061V13.8066H34.038V10.7183H33.1264V11.7863C32.9326 11.5632 32.7311 11.4949 32.4416 11.4949C31.8928 11.4949 31.4674 11.9791 31.4674 12.7257C31.4674 13.3604 31.8185 13.8707 32.5116 13.8707C32.8064 13.8707 33.0035 13.7809 33.2182 13.5061V13.5061ZM31.2309 12.2681V11.5077C31.1916 11.5034 31.1517 11.4949 31.1119 11.4949C30.7574 11.4949 30.533 11.662 30.4058 12.0142H30.397V11.5594H29.568V13.8061H30.4801V12.9213C30.4801 12.4367 30.669 12.2648 31.042 12.2648L31.2309 12.2681V12.2681ZM25.7843 11.8931C25.7532 11.5723 25.5468 11.3876 25.2223 11.3876C24.8581 11.3876 24.6386 11.6924 24.6386 12.2881C24.6386 12.7215 24.7352 13.1283 25.2612 13.1283C25.5953 13.1283 25.7532 12.9018 25.793 12.6056H26.7886C26.6973 13.4031 26.113 13.8825 25.2801 13.8825C24.236 13.8825 23.6037 13.2578 23.6037 12.2534C23.6037 11.2542 24.2967 10.6324 25.1791 10.6324C26.1441 10.6324 26.6842 11.1 26.7677 11.8927H25.7843V11.8931V11.8931Z" fill="#00ACEC"/>
<path d="M11.0374 14.0396H11.8237C12.0816 14.0396 12.1734 13.8934 12.1734 13.7254C12.1734 13.602 12.0903 13.4373 11.8261 13.4373H11.0374V14.0396ZM7.98457 13.4316H6.55334V13.902H7.94426V14.3785H6.55334V14.876H8.00788L8.70237 14.1179L8.08801 13.4339L7.98457 13.4316ZM13.7401 14.0064H14.5264C14.7842 14.0064 14.876 13.8939 14.876 13.7254C14.876 13.602 14.793 13.4373 14.5288 13.4373H13.7401V14.0064V14.0064ZM11.1632 9.68778H11.9495C12.2078 9.68778 12.2991 9.57575 12.2991 9.40724C12.2991 9.2843 12.2161 9.11816 11.9519 9.11816H11.1632V9.68778V9.68778ZM3.00659 9.98825H2.23828L2.61515 9.10962L3.00659 9.98825ZM16.8789 9.11104L16.503 9.9892H17.2742L16.8789 9.11104Z" fill="white"/>
<path d="M35.7359 14.4949L28.0134 22.0422H29.11L35.7359 15.5667V14.4949Z" fill="#3B4095"/>
<path d="M35.7361 16.6067L30.1753 22.0422H31.2709L35.7361 17.679V16.6067Z" fill="#00ACEC"/>
<path d="M35.736 18.719L32.335 22.0422H33.4325L35.736 19.7903V18.719Z" fill="#6CB35E"/>
<path d="M23.3552 20.8536C23.3555 20.6969 23.3875 20.5417 23.4491 20.3971C23.5108 20.2524 23.6011 20.121 23.7147 20.0105C23.8284 19.8999 23.9632 19.8123 24.1115 19.7527C24.2599 19.6931 24.4187 19.6627 24.5791 19.6631C24.7391 19.663 24.8975 19.6937 25.0453 19.7535C25.1932 19.8132 25.3275 19.9009 25.4406 20.0115C25.5538 20.1221 25.6435 20.2534 25.7046 20.3979C25.7658 20.5423 25.7972 20.6972 25.7971 20.8536C25.7978 21.0104 25.7668 21.1658 25.7059 21.3109C25.6451 21.456 25.5555 21.5879 25.4423 21.6991C25.3291 21.8103 25.1946 21.8985 25.0465 21.9588C24.8984 22.019 24.7395 22.0501 24.5791 22.0502C24.4183 22.0504 24.259 22.0196 24.1104 21.9595C23.9618 21.8994 23.8268 21.8113 23.7131 21.7001C23.5994 21.589 23.5093 21.457 23.4479 21.3117C23.3864 21.1664 23.355 21.0108 23.3552 20.8536V20.8536Z" fill="#00ACEC"/>
<path d="M25.6498 20.8536C25.6498 20.7161 25.6222 20.58 25.5684 20.453C25.5146 20.326 25.4357 20.2107 25.3362 20.1135C25.2368 20.0163 25.1187 19.9393 24.9888 19.8867C24.8588 19.8342 24.7195 19.8073 24.5789 19.8074C24.4381 19.807 24.2986 19.8338 24.1683 19.8862C24.0381 19.9386 23.9197 20.0156 23.82 20.1128C23.7202 20.2099 23.6411 20.3254 23.5871 20.4525C23.533 20.5796 23.5052 20.7159 23.5051 20.8536C23.5051 21.1315 23.6181 21.3981 23.8192 21.5947C24.0203 21.7912 24.2931 21.9017 24.5775 21.9017C24.8619 21.9017 25.1346 21.7912 25.3357 21.5947C25.5368 21.3981 25.6498 21.1315 25.6498 20.8536V20.8536Z" fill="white"/>
<path d="M25.1859 21.5224H24.9883L24.5973 20.9068H24.2913V21.5224H24.1248V20.1876H24.7192C24.8343 20.1876 24.9494 20.1943 25.0519 20.2536C25.1543 20.3101 25.2049 20.4288 25.2049 20.5408C25.2049 20.8038 25.0169 20.9006 24.7736 20.9068L25.1859 21.5224V21.5224Z" fill="#00ACEC"/>
<path d="M24.5474 20.7786C24.7393 20.7786 25.0365 20.8099 25.0365 20.5375C25.0365 20.3315 24.851 20.3068 24.6815 20.3068H24.292V20.7786H24.5474ZM28.4706 12.814C28.473 13.2346 28.3409 13.3675 28.0209 13.3675C27.8407 13.3675 27.7309 13.2901 27.7309 13.179C27.7314 12.8866 28.1729 12.9555 28.4706 12.814V12.814ZM33.1572 12.7044C33.1572 12.9654 33.0566 13.227 32.7405 13.227C32.4428 13.227 32.3816 12.9531 32.3816 12.7167C32.3816 12.4689 32.4646 12.1851 32.7677 12.1851C33.0697 12.1851 33.1572 12.4551 33.1572 12.7044Z" fill="white"/>
</g>
<defs>
<clipPath id="clip0_4802_222">
<rect width="37" height="23" fill="white" transform="translate(0 0.191406)"/>
</clipPath>
</defs>
</svg>
